EMG
version=1
nRows=38
nColumns=17
inDegrees=no
endheader
time	EMG01_right_gast_med	EMG02_right_glut_max	EMG03_left_gast_med	EMG04_left_glut_max	EMG05_right_glut_med	EMG06_right_bic_fem	EMG07_right_rect_fem	EMG08_right_vast_lat	EMG09_right_vast_med	EMG10_right_tens_fasc_lat	EMG11_left_glut_med	EMG12_left_bic_fem	EMG13_left_rect_fem	EMG14_left_vast_lat	EMG15_left_vast_med	EMG16_left_tens_fasc_lat
      2.51000000	     13.26610470	    -93.69113159	    -40.46444321	    -83.32527161	     98.42614746	     53.65605164	     -5.75449467	     21.38196182	     10.08852768	     14.60799026	     -6.15292215	     -1.43911266	     10.44095135	     -4.25975323	    -42.97056198	    253.25236511
      2.52000000	      7.34802818	    -79.86985779	     59.07910156	    -24.27031708	     99.62496948	    -29.56931686	    -10.02036858	     18.84920883	     19.56225777	     57.22736359	    -27.98842049	     -3.99485493	    -15.80703259	      5.38795662	    -34.06849289	    104.27403259
      2.53000000	      0.61083865	    -21.27197456	     90.66838837	     49.87240601	     59.48957825	     85.35803223	     -4.23287106	     30.44235229	      7.47184277	     78.89327240	      8.21947670	     -0.08816957	     -4.44714689	      4.41515779	    -11.64796925	     15.15956879
      2.54000000	      3.47731376	     33.45253372	    165.91831970	     63.42461777	     25.18343544	    -85.65966034	     -1.80301785	     26.62004471	     -0.18393922	     75.12685394	     16.19899368	     -7.19773483	      1.13894260	     -6.68051720	     -8.18338680	   -101.57795715
      2.55000000	     -2.60064745	     37.02879333	    108.86312866	     57.40890884	     77.19001770	    -81.68177795	     -7.50358582	      8.81457138	     -8.02483559	     37.32022858	    -18.87117386	      4.48239708	    -21.98085785	     -5.91887331	     -4.36759329	   -100.92535400
      2.56000000	     -6.57830620	     31.05420303	   -204.71627808	     37.77779388	    147.41546631	    -22.10905075	    -10.14135551	    -13.11555862	     -1.64467978	      3.64302349	      4.32274246	    -17.06947517	      3.03459835	      4.72975206	      1.64992309	    -56.06805801
      2.57000000	     -6.03579473	     21.81928635	     51.37157440	    -10.51449203	     87.64779663	    -47.99831772	      2.50504088	    -12.14082718	    -11.57942963	     -1.42274952	     -9.87173176	      9.97859192	     -6.39847946	    -22.80286026	     -0.61491621	    -28.64591599
      2.58000000	    -20.09135628	     -2.03599930	   -102.32501221	    -54.26126480	     60.87131500	    -20.74052429	     -1.08594906	    -24.40674591	    -14.14788055	    -21.35539627	    -11.45208931	    -20.35785675	      6.25873518	     -8.21862221	      5.01653481	    -16.24917984
      2.59000000	     -5.00307703	    -46.70024872	     49.53151703	    -88.75794983	     76.41098022	    -12.29699898	      1.50109172	    -23.64468193	    -48.93269348	    -50.67190170	     -3.48137879	     -2.64371061	     -1.27172923	      3.62471342	     21.09543228	     -7.21897268
      2.60000000	    -24.04403305	    -91.98433685	    129.88067627	   -105.85163879	    140.98989868	      0.54703617	     16.20221710	    -11.48365593	    -42.60537338	    -47.25952148	     -7.81762505	      1.84642327	    -19.64264107	     13.27776527	     29.67976189	    -24.79738426
      2.61000000	    -14.19809628	   -127.09801483	    -57.67478943	    -78.99217224	    107.40621948	     45.08425140	      4.04894733	     10.87542534	    -32.46472549	    -79.37680054	     -5.19625616	    -13.55502033	     -0.90706521	     -5.98302603	     42.63900757	    -17.30219078
      2.62000000	    -29.55065918	   -113.47595215	    -53.54850006	    -64.06494141	     68.47596741	     60.70787048	     -0.58996522	    -40.66149521	    -17.34338379	    -58.96105957	      1.72302127	      9.83385944	     -3.38709068	      9.74377251	     62.92822266	    -18.69177437
      2.63000000	    -28.13765526	    -50.57834625	    -51.56987000	    -40.08670044	    -52.98100662	    -46.59873962	     -2.53734875	    -13.18865490	    -15.54710674	    -48.54617310	     -9.76990604	     -2.77274394	     -0.96532381	     -3.86866045	     39.30723572	    -11.22280407
      2.64000000	    -15.40832520	    -13.42399693	   -243.71430969	    -34.38899994	    -93.57919312	      6.96563435	     -9.56444836	     12.77782249	    -45.65428925	    -46.78261185	     -2.80956769	      4.00966358	      7.32183409	     -2.15124369	      7.20996952	    -18.35310173
      2.65000000	     -3.19132018	     46.01623154	    125.19189453	    -25.44311333	   -151.23318481	    -22.59039497	    -15.76735210	    -19.23211288	    -30.33400154	    -12.34639740	     -7.06779909	      2.74624157	    -27.76453972	     -1.18713999	    -10.18663025	    -29.60082626
      2.66000000	      5.65286827	      1.24904644	     36.15328217	    -13.82663059	   -209.53326416	    -27.02398682	    -18.07047653	     19.89554977	    -27.79496384	     24.81561089	     -1.76127672	     -6.75063038	    -20.33299065	    -12.36339378	    -32.53046799	    -36.62355042
      2.67000000	      9.41404152	     57.74599457	     17.28989029	      5.33768177	   -325.47628784	    193.42745972	    -25.86580467	     12.48368931	    -12.77371120	     43.26408768	     -1.72003400	     -3.79870176	    -16.36710358	      0.40677857	    -12.00035381	    -54.85355759
      2.68000000	     12.22604847	     57.80112839	     45.37079239	      2.30734682	   -339.54495239	      2.52982998	    -14.14684200	     -5.44030714	    -30.88703346	     74.63277435	    -10.17757320	     -3.85722852	     -8.94274330	     -7.04189968	     -9.60412788	    -41.62113571
      2.69000000	     21.46757126	     80.99417114	      4.73090363	      2.04275036	   -203.53959656	    -10.36432838	    -12.03412056	     -8.57566261	     -3.95169020	     86.21647644	     -5.96445036	     -4.87299967	     -8.14735222	     -3.10786700	      3.78563309	    -44.37364578
      2.70000000	     23.40118217	    101.10927582	    -25.20597076	      5.91858435	     80.12304688	    146.47908020	    -20.49907684	     13.87662506	    119.75923157	     77.40753174	    -11.26345253	     -3.84642029	     -4.44325638	    -11.88510895	     -0.45396817	    -29.67459106
      2.71000000	     18.56626511	     85.93595886	    -70.42784882	     16.68510437	     82.41818237	     39.14550018	     -6.01190519	     -5.94375420	    240.49191284	     40.51757050	    -10.40283966	     -5.10302353	      3.99285746	    -11.40912628	     -9.02812576	    -46.83292389
      2.72000000	     -3.78653908	     14.97213078	      2.61325860	     31.32204437	    -26.76628876	     47.41616058	     -8.92285728	     -6.02579927	     57.45340729	     -1.11334848	     -1.02149701	     -4.03944111	      5.23908043	    -10.57804775	    -23.73043060	    -53.12131119
      2.73000000	     19.72642899	    -87.84656525	      3.64780283	     37.01288986	   -237.26356506	    -11.18790150	     -7.59920549	     19.82411003	    -13.50647545	    -38.10833740	     -8.99072170	      3.62009406	      2.47307110	     -2.38773108	    -38.07907867	    -82.27001953
      2.74000000	    -57.23808289	    -58.88433075	      2.04907799	     15.08216572	    195.51951599	     31.34803581	     -6.02502155	      9.95010281	     -9.53208160	    -88.60887909	    -16.42628860	     -2.48531389	      0.18320036	      0.00910783	    -47.35173798	    -97.04582977
      2.75000000	    -47.69749832	   -100.54580688	     -2.88956237	    -22.26449203	    695.77178955	    -12.11081791	     28.63984299	     17.46147728	   -191.94721985	   -113.90075684	      1.59595513	     -8.23578072	     11.86014938	     -0.86581326	    -23.14791679	    -92.13334656
      2.76000000	    -60.97819138	   -111.83940887	     -7.20011473	    -28.71092415	    -85.36077118	   -143.91542053	     -8.35181427	   -143.95283508	    109.08263397	   -257.20684814	     -4.87508011	     -3.36750770	     -2.58809423	     -4.43013668	     -7.15761089	    -66.60440063
      2.77000000	     35.65283585	   -109.54455566	     -8.31007671	    -26.65740395	   -522.65606689	    -95.83601379	     25.40920067	    -48.45343018	     47.11344147	   -199.45336914	     -1.98224735	     -5.23009491	      0.11189139	    -11.05997562	     -6.22762871	    -44.86149216
      2.78000000	     43.80185699	    -14.82852077	     -3.36916113	     -1.34125149	   -161.19396973	    -80.88531494	     26.22527885	    -30.17731667	    -84.99903870	     98.01937866	      0.60120988	      1.51367557	      3.31572580	    -11.65617561	     22.40904999	    -27.04010773
      2.79000000	    -23.83522415	    169.15158081	     -9.85676003	     -0.75237060	    225.21568298	    -28.75536537	     18.26775742	      3.18169856	   -457.14929199	    213.17446899	     -3.08715820	     -5.59223366	      3.49027920	     -3.76715398	     45.15505981	    -32.74301529
      2.80000000	    -48.85794449	    252.56797791	      4.02832031	    -23.87008476	     34.56053162	     35.26777649	      5.62257147	     36.06284332	   -147.33871460	     17.07042694	    -13.15280151	     -5.62196159	     -0.37287122	      9.94013214	     29.90029144	    -46.99671555
      2.81000000	    -64.34944153	    112.61824799	     -6.79146481	    -48.32814026	   -383.75076294	     73.82896423	    -21.47781754	     42.23131943	    131.43255615	   -154.83489990	     -9.92574883	     -2.62542987	      0.60424805	      0.24278712	     26.47013855	    -20.78753662
      2.82000000	    -70.37978363	    -58.33628845	      2.77181959	    -48.09042358	    -54.47775269	     95.84481049	    -26.05886269	     58.79080582	    405.62265015	   -116.98206329	     -9.67634869	     -3.72537279	    -12.49820709	     13.79699707	     41.64530563	     12.08496094
      2.83000000	    -42.75872803	   -110.08305359	     -8.76464176	    -34.10406113	    199.37828064	     43.56339645	    -23.09610176	     70.42773438	     41.97160339	    -33.86761856	     -0.91769457	    -10.79217720	    -11.66054344	     12.84646225	     86.46501160	     17.36084175
      2.84000000	     61.28706360	   -104.68092346	     -0.75560719	    -21.74401665	    300.96380615	      5.09437037	    -37.36267090	     54.12788010	    127.20847321	    -48.77067566	     10.22453690	    -10.24659443	    -18.70903778	     21.02651024	     97.72672272	      9.69240284
      2.85000000	    254.56044006	    -98.04769135	      0.87725174	    -20.28095055	    252.39508057	    -46.26240158	    -37.07034683	      1.25544333	    154.06692505	     16.96439934	      5.50151348	     -9.78827667	    -16.09517479	     39.80579758	     53.03363800	     -8.12440109
      2.86000000	     26.79448128	    -81.68016815	     -5.02345991	    105.00263214	     77.08878326	    -88.39781189	     -0.29030448	    -52.91898346	    -21.99510956	     75.22869873	      3.06285048	    -15.15963078	    -30.11120987	     17.41066551	     33.50024796	    -30.37841988
      2.87000000	   -151.77735901	     37.19132996	     10.64605904	    259.12387085	    -60.58977127	    -53.12330627	     18.38608170	    -50.97199249	   -354.22631836	     67.63565063	     11.43722916	    -16.15157127	    -23.03238869	    -40.47682953	     25.80018425	    -78.35417938
      2.88000000	    206.22778320	     85.88146210	      5.87475634	    483.16323853	     39.01881790	     -4.31926060	     33.69246292	    -49.23527145	   -317.16323853	     50.47709274	      3.03236723	     -3.02133942	      2.60701275	    -52.81579971	    -30.17873764	   -122.55060577
